<svg xmlns="http://www.w3.org/2000/svg" width="100%" viewBox="0 0 1923 401" fill="none" class="svg"><path d="M2.53003 1.57004C137.34 1.57004 222.02 1.05004 298.37 8.79004C387.96 17.88 435.17 45.34 471.48 73.97C493.43 91.27 528.42 125.15 549.17 139.93C573.11 156.97 601.56 169.35 631.3 179.85C656.33 188.69 665.01 195.64 692.42 204.42C729.78 216.38 736.7 186.12 775.93 186.12C815.16 186.12 815.16 219.77 854.38 219.77C893.6 219.77 893.61 181.53 932.83 181.53C972.05 181.53 972.06 217.53 1011.29 217.53C1050.52 217.53 1050.52 181.53 1089.75 181.53C1128.98 181.53 1131.78 213.67 1171.01 213.67C1210.24 213.67 1206.4 189.99 1252.61 189.61C1306.09 189.17 1341.11 183.14 1379.96 156.42C1418.11 130.18 1437.1 88.03 1526.73 43.45C1567.53 23.16 1626.52 1.57004 1704.12 1.57004H1922.54" stroke="#0275BD" stroke-width="4" stroke-miterlimit="10" stroke-dashoffset="var(--line-1-offset)" stroke-dasharray="1500px 99999px" stroke-linecap="round"></path><path d="M2.53003 97.98C137.34 97.98 221.75 100.89 298.37 105.2C398.24 110.82 461.38 134.7 483.11 144.84C527.89 165.74 589.31 185.78 629.38 195.74C667.45 205.2 682.83 201.15 737.17 187.17C766.79 179.55 781.7 217.44 822.44 217.32C857.74 217.22 863.15 183.22 902.38 183.22C932.84 183.22 940.24 217.52 979.47 217.52C1018.7 217.52 1028.64 181.52 1057.93 181.52C1097.16 181.52 1099.4 216.06 1138.63 216.06C1177.86 216.06 1183.18 184.03 1228.87 190.87C1287.66 199.66 1281.75 208.69 1358.83 186.45C1408.48 172.13 1451.45 145.87 1488.21 132.98C1531.21 117.9 1626.52 99.67 1704.13 99.67H1922.55" stroke="#5DB9F3" stroke-width="4" stroke-miterlimit="10" stroke-dashoffset="var(--line-2-offset)" stroke-dasharray="1500px 99999px" stroke-linecap="round"></path><path d="M0 200.34C134.81 200.34 219.1 200.56 295.84 200.56C396.44 200.56 549.6 201.75 595.95 201.75C635.18 201.75 651.92 203.45 706.27 189.47C735.89 181.85 747.87 212.24 789.01 217.33C824.04 221.66 829.72 181.23 868.95 181.23C899.41 181.23 913.27 219.53 946.04 219.53C980.73 219.53 995.21 181.53 1024.5 181.53C1063.73 181.53 1077.59 219.07 1105.2 219.07C1132.81 219.07 1148.87 182.27 1194.56 189.1C1253.35 197.89 1248.31 208.69 1325.39 186.46C1375.04 172.14 1383.44 201.51 1451.53 201.51C1506.26 201.51 1626.52 199.61 1704.13 199.61H1922.55" stroke="#93D5FF" stroke-width="4" stroke-miterlimit="10" stroke-dashoffset="var(--line-3-offset)" stroke-dasharray="1500px 99999px" stroke-linecap="round"></path><path d="M2.53003 301.77C137.34 301.77 221.75 298.86 298.37 294.55C398.24 288.93 461.38 265.05 483.11 254.91C527.89 234.01 600.17 207.17 629.38 204.01C663.05 200.36 684.93 201.92 715.97 211.04C745.32 219.66 780.82 182.44 812.86 182.44C848.16 182.44 848.91 219.54 888.13 219.54C918.59 219.54 932.83 181.24 965.72 181.24C994.29 181.24 1015.18 218.24 1044.47 218.24C1083.7 218.24 1087.07 183.7 1126.31 183.7C1165.55 183.7 1174.8 215.73 1220.5 208.89C1279.29 200.1 1281.74 191.07 1358.82 213.31C1408.47 227.63 1451.44 253.89 1488.2 266.78C1531.2 281.86 1626.51 300.09 1704.12 300.09H1922.54" stroke="#99E2CC" stroke-width="4" stroke-miterlimit="10" stroke-dashoffset="var(--line-4-offset)" stroke-dasharray="1500px 99999px" stroke-linecap="round"></path><path d="M2.53003 399.42C137.34 399.42 222.02 399.94 298.37 392.2C387.96 383.11 435.17 355.65 471.48 327.02C493.43 309.72 528.42 275.84 549.17 261.06C573.11 244.02 602.02 228.86 631.44 217.53C716.05 184.95 714.14 204.34 763.36 212.52C794.17 217.64 803.34 181.22 842.56 181.22C881.78 181.22 884.61 219.92 923.83 219.46C952.08 219.12 964.44 181.22 1003.67 181.22C1042.9 181.22 1054.12 219.46 1083.96 219.46C1111.43 219.46 1128.26 184.95 1167.49 184.95C1191.03 184.95 1206.4 211.01 1252.6 211.39C1306.08 211.83 1337.8 216.04 1379.95 244.58C1418.29 270.54 1437.09 312.97 1526.72 357.55C1567.52 377.84 1626.51 399.43 1704.11 399.43H1922.53" stroke="#8EEAFF" stroke-width="4" stroke-miterlimit="10" stroke-dashoffset="var(--line-5-offset)" stroke-dasharray="1500px 99999px" stroke-linecap="round"></path><path d="M2.53003 1.57004C137.34 1.57004 222.02 1.05004 298.37 8.79004C387.96 17.88 435.17 45.34 471.48 73.97C493.43 91.27 528.42 125.15 549.17 139.93C573.11 156.97 601.56 169.35 631.3 179.85C656.33 188.69 665.01 195.64 692.42 204.42C729.78 216.38 736.7 186.12 775.93 186.12C815.16 186.12 815.16 219.77 854.38 219.77C893.6 219.77 893.61 181.53 932.83 181.53C972.05 181.53 972.06 217.53 1011.29 217.53C1050.52 217.53 1050.52 181.53 1089.75 181.53C1128.98 181.53 1131.78 213.67 1171.01 213.67C1210.24 213.67 1206.4 189.99 1252.61 189.61C1306.09 189.17 1341.11 183.14 1379.96 156.42C1418.11 130.18 1437.1 88.03 1526.73 43.45C1567.53 23.16 1626.52 1.57004 1704.12 1.57004H1922.54" stroke="#0A1F44" stroke-width="3" stroke-miterlimit="10" opacity="0.2" filter="blur(3px)"></path><path d="M2.53003 97.98C137.34 97.98 221.75 100.89 298.37 105.2C398.24 110.82 461.38 134.7 483.11 144.84C527.89 165.74 589.31 185.78 629.38 195.74C667.45 205.2 682.83 201.15 737.17 187.17C766.79 179.55 781.7 217.44 822.44 217.32C857.74 217.22 863.15 183.22 902.38 183.22C932.84 183.22 940.24 217.52 979.47 217.52C1018.7 217.52 1028.64 181.52 1057.93 181.52C1097.16 181.52 1099.4 216.06 1138.63 216.06C1177.86 216.06 1183.18 184.03 1228.87 190.87C1287.66 199.66 1281.75 208.69 1358.83 186.45C1408.48 172.13 1451.45 145.87 1488.21 132.98C1531.21 117.9 1626.52 99.67 1704.13 99.67H1922.55" stroke="#5DB9F3" stroke-width="3" stroke-miterlimit="10" opacity="0.2" filter="blur(3px)"></path><path d="M0 200.34C134.81 200.34 219.1 200.56 295.84 200.56C396.44 200.56 549.6 201.75 595.95 201.75C635.18 201.75 651.92 203.45 706.27 189.47C735.89 181.85 747.87 212.24 789.01 217.33C824.04 221.66 829.72 181.23 868.95 181.23C899.41 181.23 913.27 219.53 946.04 219.53C980.73 219.53 995.21 181.53 1024.5 181.53C1063.73 181.53 1077.59 219.07 1105.2 219.07C1132.81 219.07 1148.87 182.27 1194.56 189.1C1253.35 197.89 1248.31 208.69 1325.39 186.46C1375.04 172.14 1383.44 201.51 1451.53 201.51C1506.26 201.51 1626.52 199.61 1704.13 199.61H1922.55" stroke="#93D5FF" stroke-width="3" stroke-miterlimit="10" opacity="0.2" filter="blur(3px)"></path><path d="M2.53003 301.77C137.34 301.77 221.75 298.86 298.37 294.55C398.24 288.93 461.38 265.05 483.11 254.91C527.89 234.01 600.17 207.17 629.38 204.01C663.05 200.36 684.93 201.92 715.97 211.04C745.32 219.66 780.82 182.44 812.86 182.44C848.16 182.44 848.91 219.54 888.13 219.54C918.59 219.54 932.83 181.24 965.72 181.24C994.29 181.24 1015.18 218.24 1044.47 218.24C1083.7 218.24 1087.07 183.7 1126.31 183.7C1165.55 183.7 1174.8 215.73 1220.5 208.89C1279.29 200.1 1281.74 191.07 1358.82 213.31C1408.47 227.63 1451.44 253.89 1488.2 266.78C1531.2 281.86 1626.51 300.09 1704.12 300.09H1922.54" stroke="#8EEAFF" stroke-width="3" stroke-miterlimit="10" opacity="0.2" filter="blur(3px)"></path><path d="M2.53003 399.42C137.34 399.42 222.02 399.94 298.37 392.2C387.96 383.11 435.17 355.65 471.48 327.02C493.43 309.72 528.42 275.84 549.17 261.06C573.11 244.02 602.02 228.86 631.44 217.53C716.05 184.95 714.14 204.34 763.36 212.52C794.17 217.64 803.34 181.22 842.56 181.22C881.78 181.22 884.61 219.92 923.83 219.46C952.08 219.12 964.44 181.22 1003.67 181.22C1042.9 181.22 1054.12 219.46 1083.96 219.46C1111.43 219.46 1128.26 184.95 1167.49 184.95C1191.03 184.95 1206.4 211.01 1252.6 211.39C1306.08 211.83 1337.8 216.04 1379.95 244.58C1418.29 270.54 1437.09 312.97 1526.72 357.55C1567.52 377.84 1626.51 399.43 1704.11 399.43H1922.53" stroke="#51F6FF" stroke-width="3" stroke-miterlimit="10" opacity="0.2" filter="blur(3px)"></path></svg>